<svg xmlns="http://www.w3.org/2000/svg" enable-background="new 0 0 512 512" viewBox="0 0 512 512" id="success"><linearGradient id="a" x1="455.696" x2="910.422" y1="-928.884" y2="-928.884" gradientTransform="rotate(-42.998 1846.65 155.667)" gradientUnits="userSpaceOnUse"><stop offset="0" stop-color="#b5c8de"></stop><stop offset="1" stop-color="#f7ffff"></stop></linearGradient><polygon fill="url(#a)" points="441 71 441 291 71 291 71 71 71 21 441 21"></polygon><linearGradient id="b" x1="411.817" x2="954.305" y1="-878.886" y2="-878.886" gradientTransform="rotate(-42.998 1846.65 205.667)" gradientUnits="userSpaceOnUse"><stop offset="0" stop-color="#ccd4de"></stop><stop offset="1" stop-color="#fff"></stop></linearGradient><polygon fill="url(#b)" points="501 71 501 341 11 341 11 71 71 71 71 291 441 291 441 71"></polygon><g><linearGradient id="c" x1="597.529" x2="739.353" y1="-625.256" y2="-625.256" gradientTransform="rotate(-42.998 1846.654 445.668)" gradientUnits="userSpaceOnUse"><stop offset="0" stop-color="#43309c"></stop><stop offset="1" stop-color="#8572de"></stop></linearGradient><polygon fill="url(#c)" points="331 461 331 491 181 491 181 461 221 441 221 401 291 401 291 441"></polygon></g><g><linearGradient id="d" x1="483.427" x2="882.705" y1="-713.892" y2="-713.892" gradientTransform="rotate(-42.998 1846.653 370.668)" gradientUnits="userSpaceOnUse"><stop offset="0" stop-color="#6251ad"></stop><stop offset="1" stop-color="#a493ef"></stop></linearGradient><polygon fill="url(#d)" points="501 341 501 401 291 401 221 401 11 401 11 341"></polygon></g><g><path d="M221 411H11c-5.523 0-10-4.478-10-10V71c0-5.523 4.477-10 10-10h60c5.522 0 10 4.477 10 10s-4.478 10-10 10H21v310h200c5.523 0 10 4.478 10 10S226.523 411 221 411zM501 411H291c-5.522 0-10-4.478-10-10s4.478-10 10-10h200V81h-50c-5.522 0-10-4.477-10-10s4.478-10 10-10h60c5.522 0 10 4.477 10 10v330C511 406.522 506.522 411 501 411z"></path><path d="M331 501c-5.522 0-10-4.478-10-10v-23.819l-34.472-17.236C283.14 448.25 281 444.788 281 441v-30h-50v30c0 3.788-2.14 7.25-5.528 8.944L191 467.181V491c0 5.522-4.477 10-10 10s-10-4.478-10-10v-30c0-3.788 2.14-7.25 5.528-8.944L211 434.819V401c0-5.522 4.477-10 10-10h70c5.522 0 10 4.478 10 10v33.819l34.472 17.236C338.86 453.75 341 457.212 341 461v30C341 496.522 336.522 501 331 501zM501 351H11c-5.523 0-10-4.478-10-10s4.477-10 10-10h490c5.522 0 10 4.478 10 10S506.522 351 501 351zM441 301H71c-5.522 0-10-4.478-10-10V21c0-5.523 4.478-10 10-10h370c5.522 0 10 4.477 10 10v270C451 296.522 446.522 301 441 301zM81 281h350V31H81V281z"></path><path d="M361 501H151c-5.523 0-10-4.478-10-10s4.477-10 10-10h210c5.522 0 10 4.478 10 10S366.522 501 361 501zM136 120c-2.646 0-5.191-1.049-7.071-2.929l-15-15c-3.905-3.905-3.905-10.237 0-14.143 3.906-3.905 10.236-3.905 14.143 0l7.257 7.257 17.989-21.588c3.537-4.243 9.844-4.815 14.084-1.28 4.243 3.536 4.816 9.841 1.281 14.084l-25 30c-1.799 2.158-4.423 3.46-7.23 3.588C136.302 119.997 136.15 120 136 120zM136 241c-2.646 0-5.191-1.049-7.071-2.929l-15-15c-3.905-3.905-3.905-10.237 0-14.143 3.906-3.905 10.236-3.905 14.143 0l7.257 7.257 17.989-21.588c3.537-4.243 9.844-4.815 14.084-1.28 4.243 3.536 4.816 9.841 1.281 14.084l-25 30c-1.799 2.158-4.423 3.46-7.23 3.588C136.302 240.997 136.15 241 136 241zM291 81h-80c-5.523 0-10-4.477-10-10s4.477-10 10-10h80c5.522 0 10 4.477 10 10S296.522 81 291 81zM391 131H211c-5.523 0-10-4.477-10-10s4.477-10 10-10h180c5.522 0 10 4.477 10 10S396.522 131 391 131zM291 201h-80c-5.523 0-10-4.477-10-10s4.477-10 10-10h80c5.522 0 10 4.477 10 10S296.522 201 291 201zM391 251H211c-5.523 0-10-4.477-10-10s4.477-10 10-10h180c5.522 0 10 4.477 10 10S396.522 251 391 251z"></path></g></svg>